<?xml version="1.0" encoding="UTF-8"?>
<svg id="Vrstva_1" xmlns="http://www.w3.org/2000/svg" viewBox="0 0 42.74 61.22">
  <defs>
    <style>
      .cls-1 {
        fill: #e84e0f;
      }
    </style>
  </defs>
  <path class="cls-1" d="M15.02,11.14c.69-.64,1.55-.96,2.42-1,1.1-.04,2.2.37,3,1.24,1.43,1.56,1.33,3.98-.24,5.42l-2.84,2.58-2.58-2.82c-1.42-1.55-1.32-3.99.24-5.42M41.4,39.3c-1.89-2.07-5.09-2.21-7.16-.31l-10.95,10.02c-1.55,1.43-3.55,2.16-5.65,2.06-2.09-.09-4.04-.99-5.45-2.54-2.93-3.19-2.71-8.18.48-11.1l4.07-3.73,3.4,3.71c1.89,2.06,5.09,2.2,7.16.31,2.06-1.89,2.21-5.1.32-7.16l-3.39-3.7,2.82-2.6c5.69-5.2,6.07-14.05.86-19.74C22.71-1.15,13.85-1.54,8.17,3.67c-5.68,5.21-6.07,14.06-.86,19.75l2.59,2.82-4.07,3.72c-7.31,6.7-7.81,18.11-1.11,25.43,3.25,3.54,7.68,5.61,12.48,5.82.54.02,1.07.02,1.6,0,4.22-.19,8.19-1.83,11.35-4.71l10.95-10.04c2.07-1.9,2.2-5.1.31-7.16"/>
</svg>